<?xml version="1.0" encoding="UTF-8" standalone="no"?>
<!-- Created with Inkscape (http://www.inkscape.org/) -->

<svg
   width="300"
   height="300"
   viewBox="0 0 79.374988 79.375016"
   version="1.1"
   id="svg5"
   xml:space="preserve"
   inkscape:version="1.2.2 (732a01da63, 2022-12-09)"
   sodipodi:docname="woodpecker-icon.svg"
   xmlns:inkscape="http://www.inkscape.org/namespaces/inkscape"
   xmlns:sodipodi="http://sodipodi.sourceforge.net/DTD/sodipodi-0.dtd"
   xmlns="http://www.w3.org/2000/svg"
   xmlns:svg="http://www.w3.org/2000/svg"><sodipodi:namedview
     id="namedview7"
     pagecolor="#3e3e3e"
     bordercolor="#000000"
     borderopacity="0"
     inkscape:showpageshadow="2"
     inkscape:pageopacity="0"
     inkscape:pagecheckerboard="true"
     inkscape:deskcolor="#2b2b2b"
     inkscape:document-units="px"
     showgrid="false"
     inkscape:zoom="1.829812"
     inkscape:cx="113.12638"
     inkscape:cy="153.84094"
     inkscape:window-width="1881"
     inkscape:window-height="1116"
     inkscape:window-x="734"
     inkscape:window-y="75"
     inkscape:window-maximized="0"
     inkscape:current-layer="g21" /><defs
     id="defs2"><inkscape:path-effect
       effect="fillet_chamfer"
       id="path-effect15629"
       is_visible="true"
       lpeversion="1"
       nodesatellites_param="F,0,0,1,0,160,0,1 @ F,0,0,1,0,160,0,1 @ F,0,0,1,0,160,0,1 @ F,0,0,1,0,160,0,1"
       unit="pc"
       method="auto"
       mode="F"
       radius="10"
       chamfer_steps="1"
       flexible="false"
       use_knot_distance="true"
       apply_no_radius="true"
       apply_with_radius="true"
       only_selected="false"
       hide_knots="false" /><inkscape:path-effect
       effect="fillet_chamfer"
       id="path-effect3927"
       is_visible="true"
       lpeversion="1"
       nodesatellites_param="F,0,0,1,0,71.966667,0,1 @ F,0,0,1,0,71.966667,0,1 @ F,0,0,1,0,71.966667,0,1 @ F,0,0,1,0,71.966667,0,1"
       unit="pc"
       method="auto"
       mode="F"
       radius="17"
       chamfer_steps="1"
       flexible="false"
       use_knot_distance="true"
       apply_no_radius="true"
       apply_with_radius="true"
       only_selected="false"
       hide_knots="false" /></defs><g
     inkscape:label="Layer 1"
     inkscape:groupmode="layer"
     id="layer1"
     transform="translate(-60.650456,-65.084934)"><g
       style="clip-rule:evenodd;fill-rule:evenodd;stroke-miterlimit:2"
       id="g36"
       transform="matrix(0.26458333,0,0,0.26458333,-154.0384,-73.643071)"><g
         id="g21"
         transform="matrix(0.30809402,0,0,0.30809402,632.08979,334.87792)">
        
        
        <rect
   style="fill:#000000;fill-opacity:1;stroke:#ffffff;stroke-width:13.6573;stroke-dasharray:none;stroke-opacity:0"
   id="rect21520"
   width="964.37598"
   height="969.05231"
   x="586.74762"
   y="619.58093"
   ry="210.33693" /><path
   d="m 1281.3489,876.14632 c -23.557,-6.59073 -40.1126,-29.31489 -65.7675,-41.36084 -33.3262,-15.67896 -54.9876,-17.83882 -97.1981,-21.8152 22.6598,-59.08567 169.7522,-84.08368 162.9656,63.17604 z"
   style="fill:#ffffff;fill-opacity:0.279793;stroke:#ffffff;stroke-width:1.34184;stroke-opacity:0"
   id="path19" /><path
   d="m 1312.4738,804.60522 c 5.5433,62.20725 8.7925,242.55448 -5.253,297.96928 -21.733,85.4244 -72.9707,133.2257 -138.0385,167.946 l 148.0201,120.7532 c 26.986,20.2442 93.5333,5.459 152.0185,11.8731 l -0.515,58.1762 -808.58645,1.5731 0.074,-59.8991 450.94365,-1.1892 c -3.6986,-7.5471 -57.8203,-50.189 -70.0118,-59.7399 -12.0603,-9.5603 -25.661,-19.1205 -37.7129,-28.6807 -22.99517,-18.1467 -16.41447,-19.4202 -51.83046,-19.4202 l -287.98762,0.075 c 11.75603,-16.2739 202.21957,-162.5712 236.37906,-189.7538 14.56512,-11.4986 223.43952,-173.85074 234.53542,-190.28015 -13.8301,-25.0168 -43.5503,-53.9916 -80.1527,-60.41411 -32.8288,-5.82511 -102.10934,-0.52249 -125.54649,-15.6822 1.99632,-18.89392 -11.09122,-10.60431 47.61492,-22.3285 20.4811,-4.10782 39.48357,-7.76713 59.67257,-11.72513 51.013,-9.932 59.7399,-22.0298 95.743,-45.62801 39.1868,-25.54023 62.4835,-27.03373 116.3805,-26.95882 46.0597,0.074 101.6609,-2.83811 146.4658,1.1948 -21.3677,24.1207 -57.3709,48.16743 -82.2126,72.13924 z m -42.8105,45.70292 c 5.0283,-96.78336 -103.9549,-80.35395 -120.7439,-41.52112 31.2745,2.61339 47.3237,4.03291 72.0156,14.33758 19.0082,7.91695 31.2745,22.85193 48.7283,27.18354 z m -472.90702,396.39136 263.14312,1.2734 c 122.5137,0 209.3894,-95.5932 209.4643,-219.856 0.075,-72.28819 2.9589,-176.01656 -119.7795,-171.16246 22.9221,38.83283 61.004,67.28514 54.6461,156.45126 -4.8129,67.1353 -43.7749,109.3287 -76.1637,135.987 -51.1629,42.1925 -98.3368,38.8309 -171.75231,38.8309 -31.57227,0 -78.8923,-7.0883 -100.70397,9.4105 -10.12957,7.6969 -21.44168,16.6578 -28.98314,23.0064 -13.38249,11.2738 -19.66736,13.287 -29.8709,26.059 z m 453.97382,154.5839 -125.3977,-101.6326 c -17.6692,-14.2702 -36.3028,-7.1726 -64.7682,-4.635 11.6109,14.1859 24.7668,22.0325 39.9265,34.355 74.2348,60.489 75.4146,76.3229 150.2394,71.9126 z"
   style="fill:#e6e6e6;fill-opacity:1;stroke:none;stroke-width:0.936363;stroke-opacity:1"
   id="path13" />
        
        
        
    </g></g></g></svg>
