<?xml version="1.0" encoding="UTF-8" standalone="no"?>
<!DOCTYPE svg PUBLIC "-//W3C//DTD SVG 1.1//EN" "http://www.w3.org/Graphics/SVG/1.1/DTD/svg11.dtd">
<svg width="100%" height="100%" viewBox="0 0 2100 2100" version="1.1" xmlns="http://www.w3.org/2000/svg" xmlns:xlink="http://www.w3.org/1999/xlink" xml:space="preserve" xmlns:serif="http://www.serif.com/" style="fill-rule:evenodd;clip-rule:evenodd;stroke-miterlimit:2;">
    <g>
        <rect x="0.5" y="0.5" width="2099" height="2099" style="fill:white;fill-rule:nonzero;"/>
        <path d="M2100,0L0,0L0,2100L2100,2100L2100,0ZM2099,1L2099,2099L1,2099L1,1L2099,1Z" style="fill-rule:nonzero;"/>
        <path d="M1310.69,701.33C1316.61,767.765 1320.08,960.369 1305.08,1019.55C1281.87,1110.78 1227.15,1161.83 1157.66,1198.91L1315.74,1327.87C1344.56,1349.49 1415.63,1333.7 1478.09,1340.55L1477.54,1402.68L614,1404.36L614.079,1340.39L1095.67,1339.12C1091.72,1331.06 1033.92,1285.52 1020.9,1275.32C1008.02,1265.11 993.495,1254.9 980.624,1244.69C956.066,1225.31 963.094,1223.95 925.271,1223.95L617.711,1224.03C630.266,1206.65 833.674,1050.41 870.155,1021.38C885.71,1009.1 1108.78,835.714 1120.63,818.168C1105.86,791.451 1074.12,760.507 1035.03,753.648C999.97,747.427 925.981,753.09 900.951,736.9C903.083,716.722 889.106,725.575 951.802,713.054C973.675,708.667 993.969,704.759 1015.53,700.532C1070.01,689.925 1079.33,677.005 1117.78,651.803C1159.63,624.527 1184.51,622.932 1242.07,623.012C1291.26,623.091 1350.64,619.981 1398.49,624.288C1375.67,650.048 1337.22,675.729 1310.69,701.33ZM1264.97,750.139C1270.34,646.778 1153.95,664.324 1136.02,705.796C1169.42,708.587 1186.56,710.103 1212.93,721.108C1233.23,729.563 1246.33,745.513 1264.97,750.139ZM759.923,1173.47L1040.95,1174.83C1171.79,1174.83 1264.57,1072.74 1264.65,940.032C1264.73,862.831 1267.81,752.053 1136.73,757.237C1161.21,798.709 1201.88,829.095 1195.09,924.321C1189.95,996.019 1148.34,1041.08 1113.75,1069.55C1059.11,1114.61 1008.73,1111.02 930.325,1111.02C896.607,1111.02 846.071,1103.45 822.777,1121.07C811.959,1129.29 799.878,1138.86 791.824,1145.64C777.532,1157.68 770.82,1159.83 759.923,1173.47ZM1244.75,1338.56L1110.83,1230.02C1091.96,1214.78 1072.06,1222.36 1041.66,1225.07C1054.06,1240.22 1068.11,1248.6 1084.3,1261.76C1163.58,1326.36 1164.84,1343.27 1244.75,1338.56Z" style="fill:rgb(1,1,1);"/>
        <path d="M1310.69,701.33C1316.61,767.765 1320.08,960.369 1305.08,1019.55C1281.87,1110.78 1227.15,1161.83 1157.66,1198.91L1315.74,1327.87C1344.56,1349.49 1415.63,1333.7 1478.09,1340.55L1477.54,1402.68L614,1404.36L614.079,1340.39L1095.67,1339.12C1091.72,1331.06 1033.92,1285.52 1020.9,1275.32C1008.02,1265.11 993.495,1254.9 980.624,1244.69C956.066,1225.31 963.094,1223.95 925.271,1223.95L617.711,1224.03C630.266,1206.65 833.674,1050.41 870.155,1021.38C885.71,1009.1 1108.78,835.714 1120.63,818.168C1105.86,791.451 1074.12,760.507 1035.03,753.648C999.97,747.427 925.981,753.09 900.951,736.9C903.083,716.722 889.106,725.575 951.802,713.054C973.675,708.667 993.969,704.759 1015.53,700.532C1070.01,689.925 1079.33,677.005 1117.78,651.803C1159.63,624.527 1184.51,622.932 1242.07,623.012C1291.26,623.091 1350.64,619.981 1398.49,624.288C1375.67,650.048 1337.22,675.729 1310.69,701.33ZM1264.97,750.139C1270.34,646.778 1153.95,664.324 1136.02,705.796C1169.42,708.587 1186.56,710.103 1212.93,721.108C1233.23,729.563 1246.33,745.513 1264.97,750.139ZM759.923,1173.47L1040.95,1174.83C1171.79,1174.83 1264.57,1072.74 1264.65,940.032C1264.73,862.831 1267.81,752.053 1136.73,757.237C1161.21,798.709 1201.88,829.095 1195.09,924.321C1189.95,996.019 1148.34,1041.08 1113.75,1069.55C1059.11,1114.61 1008.73,1111.02 930.325,1111.02C896.607,1111.02 846.071,1103.45 822.777,1121.07C811.959,1129.29 799.878,1138.86 791.824,1145.64C777.532,1157.68 770.82,1159.83 759.923,1173.47ZM1244.75,1338.56L1110.83,1230.02C1091.96,1214.78 1072.06,1222.36 1041.66,1225.07C1054.06,1240.22 1068.11,1248.6 1084.3,1261.76C1163.58,1326.36 1164.84,1343.27 1244.75,1338.56Z" style="fill:none;stroke:rgb(1,1,1);stroke-width:0.23px;"/>
        <path d="M759.923,1173.47C770.82,1159.83 777.532,1157.68 791.824,1145.64C799.878,1138.86 811.959,1129.29 822.777,1121.07C846.071,1103.45 896.607,1111.02 930.325,1111.02C1008.73,1111.02 1059.11,1114.61 1113.75,1069.55C1148.34,1041.08 1189.95,996.019 1195.09,924.321C1201.88,829.095 1161.21,798.709 1136.73,757.237C1267.81,752.053 1264.73,862.831 1264.65,940.032C1264.57,1072.74 1171.79,1174.83 1040.95,1174.83L759.923,1173.47Z" style="fill:rgb(254,252,253);"/>
        <path d="M1264.97,750.139C1246.33,745.513 1233.23,729.563 1212.93,721.108C1186.56,710.103 1169.42,708.587 1136.02,705.796C1153.95,664.324 1270.34,646.778 1264.97,750.139Z" style="fill:rgb(229,34,41);"/>
    </g>
</svg>
